<?xml version="1.0" encoding="UTF-8" standalone="no"?>
<!DOCTYPE svg PUBLIC "-//W3C//DTD SVG 1.1//EN" "http://www.w3.org/Graphics/SVG/1.1/DTD/svg11.dtd">
<svg xmlns="http://www.w3.org/2000/svg" version="1.1" viewBox="0.00 0.00 93.00 37.00">
<g stroke-width="2.00" fill="none" stroke-linecap="butt">
<path stroke="#456d68" vector-effect="non-scaling-stroke" d="
  M 17.2395 6.6878
  A 1.21 1.21 0.0 0 0 16.0274 5.4799
  L 15.9474 5.4801
  A 1.21 1.21 0.0 0 0 14.7395 6.6922
  L 14.7605 18.7522
  A 1.21 1.21 0.0 0 0 15.9726 19.9601
  L 16.0526 19.9599
  A 1.21 1.21 0.0 0 0 17.2605 18.7478
  L 17.2395 6.6878"
/>
<path stroke="#456d68" vector-effect="non-scaling-stroke" d="
  M 21.19 7.29
  Q 20.99 7.07 20.77 7.00
  A 0.56 0.55 9.3 0 0 20.05 7.51
  L 19.68 20.23
  Q 19.67 20.67 19.36 20.97
  Q 15.81 24.37 12.54 20.90
  Q 12.12 20.46 12.12 19.86
  L 11.95 7.73
  A 0.65 0.65 0.0 0 0 11.17 7.10
  C 9.97 7.33 9.55 8.73 9.53 9.91
  Q 9.48 15.48 9.50 21.03
  A 1.41 1.41 0.0 0 0 9.80 21.87
  C 12.69 25.55 17.19 26.31 20.82 23.19
  C 23.20 21.14 22.24 12.17 22.23 9.00
  C 22.22 8.12 21.68 7.81 21.19 7.29"
/>
<path stroke="#456d68" vector-effect="non-scaling-stroke" d="
  M 8.89 24.92
  C 5.92 22.94 6.57 14.94 7.08 10.80
  A 0.46 0.46 0.0 0 0 6.45 10.32
  C 3.13 11.76 4.69 23.01 5.47 25.59
  A 0.89 0.85 -84.0 0 0 5.86 26.09
  L 14.58 31.15
  A 0.95 0.90 53.2 0 0 15.23 31.26
  C 19.28 30.44 26.78 27.19 27.37 22.33
  C 27.65 19.98 28.09 11.88 25.58 10.33
  A 0.38 0.37 15.5 0 0 25.01 10.65
  Q 24.99 16.30 24.97 21.93
  C 24.96 23.81 22.24 25.31 21.20 26.11
  C 16.47 29.70 13.29 27.84 8.89 24.92"
/>
<path stroke="#8c8a8d" vector-effect="non-scaling-stroke" d="
  M 34.37 19.03
  A 0.54 0.54 0.0 0 1 33.39 19.00
  L 31.89 15.44
  A 0.52 0.51 -61.4 0 0 30.91 15.73
  Q 31.52 19.24 33.62 22.09
  A 0.56 0.56 0.0 0 0 34.60 21.97
  L 36.94 16.07
  Q 37.20 15.42 36.50 15.31
  Q 36.25 15.27 36.00 15.45
  Q 35.75 15.63 35.58 16.14
  Q 35.03 17.73 34.37 19.03"
/>
<path stroke="#8c8a8d" vector-effect="non-scaling-stroke" d="
  M 40.23 20.44
  L 40.38 19.99
  A 0.41 0.40 -75.2 0 1 40.85 19.71
  Q 41.41 19.83 41.94 19.72
  A 0.74 0.74 0.0 0 0 41.79 18.25
  L 40.99 18.25
  Q 40.21 18.25 40.38 17.49
  Q 40.69 16.12 42.01 16.49
  A 0.57 0.57 0.0 0 0 42.32 15.40
  Q 40.96 15.00 39.57 15.42
  A 0.74 0.74 0.0 0 0 39.04 16.10
  L 38.85 21.55
  Q 38.82 22.29 39.56 22.27
  L 42.83 22.20
  A 0.45 0.44 50.2 0 0 42.91 21.32
  L 40.44 20.80
  Q 40.14 20.74 40.23 20.44"
/>
<path stroke="#8c8a8d" vector-effect="non-scaling-stroke" d="
  M 49.02 18.97
  L 46.54 15.55
  A 0.61 0.61 0.0 0 0 45.44 15.89
  L 45.25 21.55
  A 0.66 0.66 0.0 0 0 46.49 21.90
  Q 47.15 20.72 46.48 19.46
  A 0.57 0.57 0.0 0 1 47.41 18.82
  L 50.52 22.41
  A 0.41 0.41 0.0 0 0 51.24 22.15
  Q 51.34 19.08 51.20 16.01
  Q 51.19 15.77 51.07 15.66
  Q 50.87 15.48 50.57 15.48
  A 0.51 0.51 0.0 0 0 50.07 15.98
  L 49.96 18.69
  A 0.52 0.52 0.0 0 1 49.02 18.97"
/>
<path stroke="#8c8a8d" vector-effect="non-scaling-stroke" d="
  M 53.89 16.62
  L 53.89 21.04
  A 1.26 1.26 0.0 0 0 55.15 22.30
  L 56.17 22.30
  A 3.84 3.36 0.0 0 0 60.01 18.94
  L 60.01 18.72
  A 3.84 3.36 0.0 0 0 56.17 15.36
  L 55.15 15.36
  A 1.26 1.26 0.0 0 0 53.89 16.62"
/>
<path stroke="#8c8a8d" vector-effect="non-scaling-stroke" d="
  M 63.5540 15.8412
  A 0.50 0.50 0.0 0 0 63.0480 15.3473
  L 62.5680 15.3532
  A 0.50 0.50 0.0 0 0 62.0741 15.8593
  L 62.1460 21.7388
  A 0.50 0.50 0.0 0 0 62.6520 22.2327
  L 63.1320 22.2268
  A 0.50 0.50 0.0 0 0 63.6259 21.7207
  L 63.5540 15.8412"
/>
<path stroke="#8c8a8d" vector-effect="non-scaling-stroke" d="
  M 68.69 20.98
  L 66.03 21.01
  A 0.42 0.42 0.0 0 0 65.84 21.80
  Q 68.23 23.03 70.27 21.45
  A 0.93 0.93 0.0 0 0 70.57 20.39
  Q 69.88 18.60 67.96 18.19
  A 0.76 0.76 0.0 0 1 67.98 16.70
  L 69.56 16.41
  A 0.45 0.45 0.0 0 0 69.64 15.55
  Q 68.48 15.09 67.19 15.45
  A 1.79 1.79 0.0 0 0 66.74 18.70
  L 68.95 20.04
  A 0.51 0.51 0.0 0 1 68.69 20.98"
/>
<path stroke="#8c8a8d" vector-effect="non-scaling-stroke" d="
  M 77.11 15.35
  Q 74.82 15.55 72.55 15.31
  Q 72.28 15.28 72.10 15.37
  Q 71.92 15.46 71.83 15.61
  Q 71.56 16.05 72.05 16.22
  L 73.47 16.71
  Q 74.01 16.90 74.00 17.46
  Q 73.97 19.47 74.08 21.43
  Q 74.12 22.14 74.56 22.41
  A 0.45 0.45 0.0 0 0 75.25 22.03
  L 75.25 17.50
  A 0.63 0.62 81.1 0 1 75.68 16.90
  L 77.32 16.35
  A 0.52 0.51 33.2 0 0 77.11 15.35"
/>
<path stroke="#8c8a8d" vector-effect="non-scaling-stroke" d="
  M 82.45 20.75
  L 83.94 22.42
  A 0.39 0.38 -77.6 0 0 84.58 22.01
  L 81.88 15.69
  A 0.64 0.63 45.9 0 0 80.72 15.67
  L 77.75 22.06
  A 0.10 0.10 0.0 0 0 77.80 22.19
  Q 77.92 22.22 78.04 22.27
  A 0.51 0.50 25.5 0 0 78.63 22.07
  Q 79.78 20.20 81.99 20.51
  A 0.79 0.73 -15.2 0 1 82.45 20.75"
/>
<path stroke="#8c8a8d" vector-effect="non-scaling-stroke" d="
  M 55.45 16.95
  L 55.05 20.37
  A 0.49 0.49 0.0 0 0 55.48 20.91
  L 55.72 20.94
  A 2.71 2.12 6.7 0 0 58.66 19.15
  L 58.68 18.97
  A 2.71 2.12 6.7 0 0 56.23 16.55
  L 56.00 16.52
  A 0.49 0.49 0.0 0 0 55.45 16.95"
/>
<path stroke="#8c8a8d" vector-effect="non-scaling-stroke" d="
  M 81.6459 19.6025
  A 1.00 0.70 67.3 0 0 81.9058 18.4099
  A 1.00 0.70 67.3 0 0 80.8741 17.7575
  A 1.00 0.70 67.3 0 0 80.6142 18.9501
  A 1.00 0.70 67.3 0 0 81.6459 19.6025"
/>
</g>
<path fill="#2e2d2e" d="
  M 0.00 0.00
  L 93.00 0.00
  L 93.00 37.00
  L 0.00 37.00
  L 0.00 0.00
  Z
  M 17.2395 6.6878
  A 1.21 1.21 0.0 0 0 16.0274 5.4799
  L 15.9474 5.4801
  A 1.21 1.21 0.0 0 0 14.7395 6.6922
  L 14.7605 18.7522
  A 1.21 1.21 0.0 0 0 15.9726 19.9601
  L 16.0526 19.9599
  A 1.21 1.21 0.0 0 0 17.2605 18.7478
  L 17.2395 6.6878
  Z
  M 21.19 7.29
  Q 20.99 7.07 20.77 7.00
  A 0.56 0.55 9.3 0 0 20.05 7.51
  L 19.68 20.23
  Q 19.67 20.67 19.36 20.97
  Q 15.81 24.37 12.54 20.90
  Q 12.12 20.46 12.12 19.86
  L 11.95 7.73
  A 0.65 0.65 0.0 0 0 11.17 7.10
  C 9.97 7.33 9.55 8.73 9.53 9.91
  Q 9.48 15.48 9.50 21.03
  A 1.41 1.41 0.0 0 0 9.80 21.87
  C 12.69 25.55 17.19 26.31 20.82 23.19
  C 23.20 21.14 22.24 12.17 22.23 9.00
  C 22.22 8.12 21.68 7.81 21.19 7.29
  Z
  M 8.89 24.92
  C 5.92 22.94 6.57 14.94 7.08 10.80
  A 0.46 0.46 0.0 0 0 6.45 10.32
  C 3.13 11.76 4.69 23.01 5.47 25.59
  A 0.89 0.85 -84.0 0 0 5.86 26.09
  L 14.58 31.15
  A 0.95 0.90 53.2 0 0 15.23 31.26
  C 19.28 30.44 26.78 27.19 27.37 22.33
  C 27.65 19.98 28.09 11.88 25.58 10.33
  A 0.38 0.37 15.5 0 0 25.01 10.65
  Q 24.99 16.30 24.97 21.93
  C 24.96 23.81 22.24 25.31 21.20 26.11
  C 16.47 29.70 13.29 27.84 8.89 24.92
  Z
  M 34.37 19.03
  A 0.54 0.54 0.0 0 1 33.39 19.00
  L 31.89 15.44
  A 0.52 0.51 -61.4 0 0 30.91 15.73
  Q 31.52 19.24 33.62 22.09
  A 0.56 0.56 0.0 0 0 34.60 21.97
  L 36.94 16.07
  Q 37.20 15.42 36.50 15.31
  Q 36.25 15.27 36.00 15.45
  Q 35.75 15.63 35.58 16.14
  Q 35.03 17.73 34.37 19.03
  Z
  M 40.23 20.44
  L 40.38 19.99
  A 0.41 0.40 -75.2 0 1 40.85 19.71
  Q 41.41 19.83 41.94 19.72
  A 0.74 0.74 0.0 0 0 41.79 18.25
  L 40.99 18.25
  Q 40.21 18.25 40.38 17.49
  Q 40.69 16.12 42.01 16.49
  A 0.57 0.57 0.0 0 0 42.32 15.40
  Q 40.96 15.00 39.57 15.42
  A 0.74 0.74 0.0 0 0 39.04 16.10
  L 38.85 21.55
  Q 38.82 22.29 39.56 22.27
  L 42.83 22.20
  A 0.45 0.44 50.2 0 0 42.91 21.32
  L 40.44 20.80
  Q 40.14 20.74 40.23 20.44
  Z
  M 49.02 18.97
  L 46.54 15.55
  A 0.61 0.61 0.0 0 0 45.44 15.89
  L 45.25 21.55
  A 0.66 0.66 0.0 0 0 46.49 21.90
  Q 47.15 20.72 46.48 19.46
  A 0.57 0.57 0.0 0 1 47.41 18.82
  L 50.52 22.41
  A 0.41 0.41 0.0 0 0 51.24 22.15
  Q 51.34 19.08 51.20 16.01
  Q 51.19 15.77 51.07 15.66
  Q 50.87 15.48 50.57 15.48
  A 0.51 0.51 0.0 0 0 50.07 15.98
  L 49.96 18.69
  A 0.52 0.52 0.0 0 1 49.02 18.97
  Z
  M 53.89 16.62
  L 53.89 21.04
  A 1.26 1.26 0.0 0 0 55.15 22.30
  L 56.17 22.30
  A 3.84 3.36 0.0 0 0 60.01 18.94
  L 60.01 18.72
  A 3.84 3.36 0.0 0 0 56.17 15.36
  L 55.15 15.36
  A 1.26 1.26 0.0 0 0 53.89 16.62
  Z
  M 63.5540 15.8412
  A 0.50 0.50 0.0 0 0 63.0480 15.3473
  L 62.5680 15.3532
  A 0.50 0.50 0.0 0 0 62.0741 15.8593
  L 62.1460 21.7388
  A 0.50 0.50 0.0 0 0 62.6520 22.2327
  L 63.1320 22.2268
  A 0.50 0.50 0.0 0 0 63.6259 21.7207
  L 63.5540 15.8412
  Z
  M 68.69 20.98
  L 66.03 21.01
  A 0.42 0.42 0.0 0 0 65.84 21.80
  Q 68.23 23.03 70.27 21.45
  A 0.93 0.93 0.0 0 0 70.57 20.39
  Q 69.88 18.60 67.96 18.19
  A 0.76 0.76 0.0 0 1 67.98 16.70
  L 69.56 16.41
  A 0.45 0.45 0.0 0 0 69.64 15.55
  Q 68.48 15.09 67.19 15.45
  A 1.79 1.79 0.0 0 0 66.74 18.70
  L 68.95 20.04
  A 0.51 0.51 0.0 0 1 68.69 20.98
  Z
  M 77.11 15.35
  Q 74.82 15.55 72.55 15.31
  Q 72.28 15.28 72.10 15.37
  Q 71.92 15.46 71.83 15.61
  Q 71.56 16.05 72.05 16.22
  L 73.47 16.71
  Q 74.01 16.90 74.00 17.46
  Q 73.97 19.47 74.08 21.43
  Q 74.12 22.14 74.56 22.41
  A 0.45 0.45 0.0 0 0 75.25 22.03
  L 75.25 17.50
  A 0.63 0.62 81.1 0 1 75.68 16.90
  L 77.32 16.35
  A 0.52 0.51 33.2 0 0 77.11 15.35
  Z
  M 82.45 20.75
  L 83.94 22.42
  A 0.39 0.38 -77.6 0 0 84.58 22.01
  L 81.88 15.69
  A 0.64 0.63 45.9 0 0 80.72 15.67
  L 77.75 22.06
  A 0.10 0.10 0.0 0 0 77.80 22.19
  Q 77.92 22.22 78.04 22.27
  A 0.51 0.50 25.5 0 0 78.63 22.07
  Q 79.78 20.20 81.99 20.51
  A 0.79 0.73 -15.2 0 1 82.45 20.75
  Z"
/>
<rect fill="#5caca2" x="-1.25" y="-7.24" transform="translate(16.00,12.72) rotate(-0.1)" width="2.50" height="14.48" rx="1.21"/>
<path fill="#5caca2" d="
  M 21.19 7.29
  C 21.68 7.81 22.22 8.12 22.23 9.00
  C 22.24 12.17 23.20 21.14 20.82 23.19
  C 17.19 26.31 12.69 25.55 9.80 21.87
  A 1.41 1.41 0.0 0 1 9.50 21.03
  Q 9.48 15.48 9.53 9.91
  C 9.55 8.73 9.97 7.33 11.17 7.10
  A 0.65 0.65 0.0 0 1 11.95 7.73
  L 12.12 19.86
  Q 12.12 20.46 12.54 20.90
  Q 15.81 24.37 19.36 20.97
  Q 19.67 20.67 19.68 20.23
  L 20.05 7.51
  A 0.56 0.55 9.3 0 1 20.77 7.00
  Q 20.99 7.07 21.19 7.29
  Z"
/>
<path fill="#5caca2" d="
  M 8.89 24.92
  C 13.29 27.84 16.47 29.70 21.20 26.11
  C 22.24 25.31 24.96 23.81 24.97 21.93
  Q 24.99 16.30 25.01 10.65
  A 0.38 0.37 15.5 0 1 25.58 10.33
  C 28.09 11.88 27.65 19.98 27.37 22.33
  C 26.78 27.19 19.28 30.44 15.23 31.26
  A 0.95 0.90 53.2 0 1 14.58 31.15
  L 5.86 26.09
  A 0.89 0.85 -84.0 0 1 5.47 25.59
  C 4.69 23.01 3.13 11.76 6.45 10.32
  A 0.46 0.46 0.0 0 1 7.08 10.80
  C 6.57 14.94 5.92 22.94 8.89 24.92
  Z"
/>
<path fill="#eae7eb" d="
  M 34.37 19.03
  Q 35.03 17.73 35.58 16.14
  Q 35.75 15.63 36.00 15.45
  Q 36.25 15.27 36.50 15.31
  Q 37.20 15.42 36.94 16.07
  L 34.60 21.97
  A 0.56 0.56 0.0 0 1 33.62 22.09
  Q 31.52 19.24 30.91 15.73
  A 0.52 0.51 -61.4 0 1 31.89 15.44
  L 33.39 19.00
  A 0.54 0.54 0.0 0 0 34.37 19.03
  Z"
/>
<path fill="#eae7eb" d="
  M 40.44 20.80
  L 42.91 21.32
  A 0.45 0.44 50.2 0 1 42.83 22.20
  L 39.56 22.27
  Q 38.82 22.29 38.85 21.55
  L 39.04 16.10
  A 0.74 0.74 0.0 0 1 39.57 15.42
  Q 40.96 15.00 42.32 15.40
  A 0.57 0.57 0.0 0 1 42.01 16.49
  Q 40.69 16.12 40.38 17.49
  Q 40.21 18.25 40.99 18.25
  L 41.79 18.25
  A 0.74 0.74 0.0 0 1 41.94 19.72
  Q 41.41 19.83 40.85 19.71
  A 0.41 0.40 -75.2 0 0 40.38 19.99
  L 40.23 20.44
  Q 40.14 20.74 40.44 20.80
  Z"
/>
<path fill="#eae7eb" d="
  M 49.96 18.69
  L 50.07 15.98
  A 0.51 0.51 0.0 0 1 50.57 15.48
  Q 50.87 15.48 51.07 15.66
  Q 51.19 15.77 51.20 16.01
  Q 51.34 19.08 51.24 22.15
  A 0.41 0.41 0.0 0 1 50.52 22.41
  L 47.41 18.82
  A 0.57 0.57 0.0 0 0 46.48 19.46
  Q 47.15 20.72 46.49 21.90
  A 0.66 0.66 0.0 0 1 45.25 21.55
  L 45.44 15.89
  A 0.61 0.61 0.0 0 1 46.54 15.55
  L 49.02 18.97
  A 0.52 0.52 0.0 0 0 49.96 18.69
  Z"
/>
<path fill="#eae7eb" d="
  M 53.89 16.62
  A 1.26 1.26 0.0 0 1 55.15 15.36
  L 56.17 15.36
  A 3.84 3.36 0.0 0 1 60.01 18.72
  L 60.01 18.94
  A 3.84 3.36 0.0 0 1 56.17 22.30
  L 55.15 22.30
  A 1.26 1.26 0.0 0 1 53.89 21.04
  L 53.89 16.62
  Z
  M 55.45 16.95
  L 55.05 20.37
  A 0.49 0.49 0.0 0 0 55.48 20.91
  L 55.72 20.94
  A 2.71 2.12 6.7 0 0 58.66 19.15
  L 58.68 18.97
  A 2.71 2.12 6.7 0 0 56.23 16.55
  L 56.00 16.52
  A 0.49 0.49 0.0 0 0 55.45 16.95
  Z"
/>
<rect fill="#eae7eb" x="-0.74" y="-3.44" transform="translate(62.85,18.79) rotate(-0.7)" width="1.48" height="6.88" rx="0.50"/>
<path fill="#eae7eb" d="
  M 68.95 20.04
  L 66.74 18.70
  A 1.79 1.79 0.0 0 1 67.19 15.45
  Q 68.48 15.09 69.64 15.55
  A 0.45 0.45 0.0 0 1 69.56 16.41
  L 67.98 16.70
  A 0.76 0.76 0.0 0 0 67.96 18.19
  Q 69.88 18.60 70.57 20.39
  A 0.93 0.93 0.0 0 1 70.27 21.45
  Q 68.23 23.03 65.84 21.80
  A 0.42 0.42 0.0 0 1 66.03 21.01
  L 68.69 20.98
  A 0.51 0.51 0.0 0 0 68.95 20.04
  Z"
/>
<path fill="#eae7eb" d="
  M 77.11 15.35
  A 0.52 0.51 33.2 0 1 77.32 16.35
  L 75.68 16.90
  A 0.63 0.62 81.1 0 0 75.25 17.50
  L 75.25 22.03
  A 0.45 0.45 0.0 0 1 74.56 22.41
  Q 74.12 22.14 74.08 21.43
  Q 73.97 19.47 74.00 17.46
  Q 74.01 16.90 73.47 16.71
  L 72.05 16.22
  Q 71.56 16.05 71.83 15.61
  Q 71.92 15.46 72.10 15.37
  Q 72.28 15.28 72.55 15.31
  Q 74.82 15.55 77.11 15.35
  Z"
/>
<path fill="#eae7eb" d="
  M 81.99 20.51
  Q 79.78 20.20 78.63 22.07
  A 0.51 0.50 25.5 0 1 78.04 22.27
  Q 77.92 22.22 77.80 22.19
  A 0.10 0.10 0.0 0 1 77.75 22.06
  L 80.72 15.67
  A 0.64 0.63 45.9 0 1 81.88 15.69
  L 84.58 22.01
  A 0.39 0.38 -77.6 0 1 83.94 22.42
  L 82.45 20.75
  A 0.79 0.73 -15.2 0 0 81.99 20.51
  Z
  M 81.6459 19.6025
  A 1.00 0.70 67.3 0 0 81.9058 18.4099
  A 1.00 0.70 67.3 0 0 80.8741 17.7575
  A 1.00 0.70 67.3 0 0 80.6142 18.9501
  A 1.00 0.70 67.3 0 0 81.6459 19.6025
  Z"
/>
<path fill="#2e2d2e" d="
  M 55.45 16.95
  A 0.49 0.49 0.0 0 1 56.00 16.52
  L 56.23 16.55
  A 2.71 2.12 6.7 0 1 58.68 18.97
  L 58.66 19.15
  A 2.71 2.12 6.7 0 1 55.72 20.94
  L 55.48 20.91
  A 0.49 0.49 0.0 0 1 55.05 20.37
  L 55.45 16.95
  Z"
/>
<ellipse fill="#2e2d2e" cx="0.00" cy="0.00" transform="translate(81.26,18.68) rotate(67.3)" rx="1.00" ry="0.70"/>
</svg>
